<svg xmlns="http://www.w3.org/2000/svg" viewBox="0 0 1200 120" preserveAspectRatio="none">
  <path d="M321.39,56.44c58-10.79,114.16-30.13,172-41.86,82.39-16.87,168.19-17.5,250.6-.87C823.93,31,906.67,72.572,985.66,92.83c70.05,18.48,146.53,26.09,214.34,3V0H0V27.35A600.21,600.21,0,0,0,321.39,56.44Z" fill="#3b82f6" opacity="0.33"></path>
  <path d="M1059.52,55.902c63.91-7.68,119.92-22.88,165.73-39.8C1206.69,9.5,1239.58,4.21,1271,13.69V120H0V55.6C50.3,36.62,103.53,24.06,159.86,18.51C228.68,9.29,300.12,4.85,375.87,13.99C454.12,23.83,531.4,37.02,606.45,52.15C688.52,68.612,751.35,76.44,808.84,86.25c9.42,1.45,18.44,3.15,27.6,4.85V120H1059.52Z" fill="#0284c7" opacity="0.5"></path>
  <path d="M1293.26,40.23c50.59-5.4,100.67-10.6,151.77-7.91c27,.55,53.7,5.7,79.57,14.85V120H1000V55.88c12.27,4.12,24.5,8.5,37,13.14c27.2,8.78,54.88,17.74,82.59,23.86c40.66,8.24,80.73,10.47,121.06,2.11Z" fill="#06b6d4" opacity="0.33"></path>
</svg>
